<?xml version="1.0" standalone="no"?>
<!DOCTYPE svg PUBLIC "-//W3C//DTD SVG 20010904//EN"
 "http://www.w3.org/TR/2001/REC-SVG-20010904/DTD/svg10.dtd">
<svg version="1.0" xmlns="http://www.w3.org/2000/svg"
 width="760.000000pt" height="760.000000pt" viewBox="0 0 760.000000 760.000000"
 preserveAspectRatio="xMidYMid meet">
<metadata>
Created by potrace 1.11, written by Peter Selinger 2001-2013
</metadata>
<g transform="translate(0.000000,760.000000) scale(0.100000,-0.100000)"
fill="#000000" stroke="none">
<path d="M3812 7552 c-10 -10 -44 -76 -76 -147 -32 -72 -93 -206 -136 -300
-43 -93 -121 -264 -174 -380 l-95 -210 -44 95 c-25 52 -60 129 -80 171 -36 79
-59 99 -94 81 -10 -6 -79 -144 -160 -324 -170 -373 -326 -716 -355 -778 -61
-132 -61 -131 -40 -159 10 -15 49 -47 88 -73 103 -71 230 -115 377 -133 l57
-7 0 -89 c0 -82 13 -139 31 -139 4 0 14 -3 22 -6 9 -3 25 4 36 15 18 18 21 33
21 120 l0 99 63 7 c93 11 197 40 280 78 73 34 77 34 153 26 44 -4 85 -8 92 -8
9 -1 12 -38 12 -151 0 -137 2 -152 20 -170 26 -26 36 -25 65 5 24 23 25 28 25
170 0 80 1 145 3 145 1 0 41 5 90 10 87 9 88 9 160 -25 80 -38 194 -70 286
-81 l61 -7 0 -103 c0 -99 1 -104 25 -120 23 -15 27 -15 50 0 24 16 25 21 25
120 l0 104 68 7 c146 16 316 82 420 164 63 50 64 62 16 167 -20 44 -85 185
-144 314 -58 129 -165 363 -236 519 -86 189 -136 289 -151 299 -40 26 -62 -1
-137 -169 -38 -85 -72 -158 -76 -162 -4 -4 -89 171 -188 390 -273 600 -280
616 -297 635 -19 23 -40 23 -63 0z m103 -319 c34 -76 96 -212 138 -303 409
-898 497 -1096 493 -1107 -8 -20 -137 -100 -213 -132 -126 -53 -288 -91 -392
-91 l-41 0 0 93 0 92 58 40 c31 21 99 70 150 108 87 63 93 70 90 100 -2 24 -9
34 -30 41 -22 8 -34 4 -80 -29 -29 -21 -83 -60 -120 -87 l-68 -48 0 213 0 213
98 70 c78 56 98 74 100 97 4 34 -13 57 -41 57 -11 0 -51 -22 -89 -50 l-68 -50
0 133 c0 104 -3 137 -16 155 -18 26 -50 28 -76 5 -17 -15 -18 -38 -18 -300 0
-155 -3 -283 -6 -283 -3 0 -55 36 -116 80 -61 44 -120 80 -132 80 -30 0 -46
-18 -46 -52 0 -24 19 -41 150 -134 l150 -108 0 -218 0 -218 -47 0 c-115 0
-316 52 -438 113 -81 40 -177 108 -171 121 2 6 79 175 171 376 92 201 246 538
342 750 196 431 192 424 200 416 3 -3 34 -67 68 -143z m-710 -693 c36 -79 65
-147 65 -151 0 -4 -56 -131 -125 -282 -69 -151 -125 -283 -125 -294 0 -54 210
-195 370 -248 l55 -19 -60 -18 c-224 -70 -548 -26 -698 95 l-28 22 94 205 c52
113 109 239 127 280 18 41 56 125 84 185 29 61 78 169 111 242 32 73 60 131
62 130 1 -2 32 -68 68 -147z m1368 103 c9 -21 115 -254 235 -518 l220 -480
-21 -19 c-39 -33 -154 -85 -239 -107 -110 -30 -318 -32 -423 -5 -103 27 -105
30 -33 56 165 61 358 192 358 243 0 7 -58 139 -129 294 l-128 281 65 146 c37
80 69 146 73 146 4 0 14 -17 22 -37z"/>
<path d="M850 6810 c-24 -24 -25 -48 -4 -78 18 -26 65 -30 88 -6 24 23 20 70
-6 88 -30 21 -54 20 -78 -4z"/>
<path d="M6750 6810 c-24 -24 -25 -48 -4 -78 19 -27 64 -29 87 -4 24 26 21 68
-5 86 -30 21 -54 20 -78 -4z"/>
<path d="M970 6690 c-11 -11 -20 -30 -20 -43 0 -16 370 -392 1405 -1427 l1405
-1405 -1405 -1405 c-818 -818 -1405 -1413 -1405 -1423 0 -21 43 -67 62 -67 7
0 646 633 1420 1407 l1408 1408 1403 -1403 c1031 -1031 1408 -1402 1425 -1402
26 0 62 33 62 58 0 9 -606 623 -1400 1417 -770 770 -1400 1404 -1400 1410 0 5
630 640 1400 1410 973 973 1400 1406 1400 1421 0 27 -30 54 -61 54 -19 0 -336
-312 -1426 -1402 l-1403 -1403 -1408 1408 c-792 792 -1415 1407 -1425 1407 -9
0 -26 -9 -37 -20z"/>
<path d="M529 5328 c-104 -111 -156 -225 -174 -383 -13 -116 33 -292 102 -394
21 -31 233 -253 473 -494 287 -290 434 -444 431 -455 -1 -10 -5 -56 -8 -104
-7 -122 26 -215 105 -300 44 -48 64 -39 181 77 l106 104 196 -194 c211 -210
246 -234 334 -235 75 0 122 17 173 63 84 78 110 193 63 287 -15 28 -94 117
-217 240 l-194 195 105 105 c90 89 105 109 105 137 0 81 -214 176 -354 158
-28 -4 -59 -12 -69 -17 -16 -8 -111 83 -647 621 -441 443 -634 631 -649 631
-13 0 -39 -18 -62 -42z m648 -680 l583 -583 -62 -62 c-34 -35 -65 -63 -69 -63
-4 0 -85 79 -181 175 -181 182 -200 195 -240 158 -10 -9 -18 -25 -18 -36 0
-13 65 -86 180 -202 l180 -181 -65 -64 -65 -65 -416 415 c-244 244 -432 439
-454 473 -99 150 -114 331 -40 494 26 58 68 121 80 122 3 1 267 -261 587 -581z
m951 -648 c23 -10 42 -23 42 -27 0 -9 -652 -663 -661 -663 -4 0 -16 22 -28 49
-30 71 -29 173 3 244 33 76 311 356 388 392 69 32 191 35 256 5z m-8 -445 c0
-6 -43 -53 -95 -105 l-95 -95 -52 53 -53 52 100 100 99 100 48 -47 c27 -26 48
-52 48 -58z m140 -130 l44 -45 -99 -100 -99 -100 -48 47 -48 47 97 98 c54 54
100 98 103 98 3 0 26 -20 50 -45z m145 -155 c19 -37 19 -103 0 -140 -34 -65
-128 -89 -194 -49 l-34 21 99 99 c54 54 102 99 106 99 4 0 14 -13 23 -30z"/>
<path d="M840 4629 c-7 -11 -9 -31 -6 -43 7 -28 168 -186 190 -186 35 0 56 20
56 52 0 25 -15 46 -82 114 -70 72 -86 84 -114 84 -24 0 -37 -6 -44 -21z"/>
<path d="M6884 5341 c-36 -22 -72 -67 -102 -127 -34 -67 -179 -188 -322 -269
-36 -20 -137 -69 -226 -109 -353 -159 -423 -216 -679 -557 -257 -342 -269
-354 -444 -445 -103 -53 -199 -134 -225 -188 -47 -100 21 -225 245 -447 160
-159 283 -239 365 -239 77 0 171 95 259 262 76 145 117 185 400 397 249 187
378 308 449 424 27 42 79 146 117 230 90 198 141 296 200 382 79 114 155 193
218 225 91 46 131 100 131 178 0 33 -11 47 -133 169 -131 131 -134 133 -177
133 -27 0 -58 -8 -76 -19z m170 -200 c54 -54 97 -104 94 -111 -2 -7 -36 -31
-75 -54 -134 -77 -284 -276 -399 -528 -115 -254 -154 -326 -215 -407 -67 -90
-128 -143 -414 -359 -272 -205 -312 -246 -383 -387 -55 -109 -125 -203 -159
-211 -36 -9 -94 22 -186 101 -160 136 -327 338 -327 394 0 38 74 99 201 166
149 79 217 144 387 370 314 419 362 462 655 591 263 115 399 196 532 313 70
63 92 90 139 174 15 26 32 47 39 47 7 0 57 -44 111 -99z"/>
<path d="M6485 4334 c-51 -114 -142 -251 -207 -309 -29 -27 -150 -121 -268
-210 -236 -178 -324 -254 -380 -330 -53 -72 -93 -151 -87 -169 10 -25 30 -9
56 44 62 126 134 196 426 415 230 173 294 228 363 314 56 69 162 272 162 310
0 45 -29 17 -65 -65z"/>
<path d="M3162 2448 c-8 -8 -12 -58 -12 -160 l0 -148 -158 0 c-141 0 -161 -2
-175 -18 -15 -16 -17 -46 -17 -208 0 -148 3 -194 14 -210 13 -17 30 -19 175
-22 l161 -3 0 -110 0 -109 -159 0 c-154 0 -160 -1 -175 -22 -13 -18 -16 -56
-16 -210 0 -244 -14 -228 195 -228 l155 0 0 -110 0 -110 -155 0 c-209 0 -195
16 -195 -228 0 -154 3 -192 16 -210 15 -21 21 -22 174 -22 l159 0 3 -132 c3
-129 4 -133 27 -145 25 -12 57 -3 73 21 4 6 8 66 8 134 l0 122 585 0 585 0 0
-123 c0 -136 8 -159 53 -159 52 -1 57 13 57 153 l0 129 162 2 c162 3 162 3
175 28 9 17 13 79 13 201 0 163 -2 178 -21 203 l-20 26 -155 0 -154 0 0 110 0
110 153 0 c120 1 156 4 172 16 19 14 20 27 20 213 0 153 -3 202 -14 214 -11
15 -37 17 -172 17 l-159 0 0 110 0 110 145 0 c164 0 192 7 201 54 3 17 4 108
2 202 -2 126 -7 175 -17 187 -11 15 -37 17 -172 17 l-159 0 0 148 c0 162 -3
172 -55 172 -52 0 -55 -10 -55 -172 l0 -148 -585 0 -585 0 0 141 c0 77 -5 149
-10 160 -12 22 -68 27 -88 7z m1618 -538 l0 -120 -935 0 -935 0 0 120 0 120
935 0 935 0 0 -120z m-350 -340 l0 -110 -585 0 -585 0 0 110 0 110 585 0 585
0 0 -110z m350 -340 l0 -120 -935 0 -935 0 0 120 0 120 935 0 935 0 0 -120z
m-350 -340 l0 -110 -585 0 -585 0 0 110 0 110 585 0 585 0 0 -110z m350 -340
l0 -120 -935 0 -935 0 0 120 0 120 935 0 935 0 0 -120z"/>
<path d="M850 910 c-11 -11 -20 -29 -20 -40 0 -27 35 -60 64 -60 54 0 78 74
34 104 -30 21 -54 20 -78 -4z"/>
<path d="M6750 910 c-24 -24 -25 -48 -4 -78 19 -27 64 -29 87 -4 24 26 21 68
-5 86 -30 21 -54 20 -78 -4z"/>
</g>
</svg>
